<svg class="sc-hCPjZK gAaIdB" fill="none" preserveAspectRatio="xMidYMid meet" viewBox="0 0 257 19" xmlns="http://www.w3.org/2000/svg">
	<path d="M74.375 3.686h-6.627v14.727h2.945v-4.418h3.682a5.156 5.156 0 000-10.31zm0 7.363h-3.682V6.631h3.682c1.219 0 2.21.99 2.21 2.21a2.21 2.21 0 01-2.21 2.208zM184.834 3.686h-6.628v14.727h2.946v-4.418h3.682a5.156 5.156 0 005.155-5.155 5.156 5.156 0 00-5.155-5.154zm0 7.363h-3.682V6.631h3.682a2.21 2.21 0 012.209 2.21 2.21 2.21 0 01-2.209 2.208zM206.926 3.686h-6.628v14.727h2.946v-4.418h3.682a5.155 5.155 0 000-10.31zm0 7.363h-3.682V6.631h3.682c1.218 0 2.209.99 2.209 2.21 0 1.218-.991 2.208-2.209 2.208zM54.493 3.686l-2.946 5.89-2.945-5.89H44.92l5.154 8.836v5.891h2.946v-5.89l5.155-8.837h-3.682zM10.832 13.781a4.417 4.417 0 01-7.887-2.732 4.417 4.417 0 017.887-2.732l2.088-2.091a7.346 7.346 0 00-5.556-2.544A7.362 7.362 0 000 11.046a7.362 7.362 0 007.364 7.363c2.22 0 4.208-.986 5.556-2.544l-2.088-2.084z" fill="#ffffff">
	</path>
	<path d="M10.832 8.318a4.417 4.417 0 00-7.887 2.732 4.417 4.417 0 007.887 2.732l2.088 2.091a7.346 7.346 0 01-5.556 2.544A7.362 7.362 0 010 11.053 7.362 7.362 0 017.364 3.69c2.22 0 4.208.987 5.556 2.545l-2.088 2.084zM36.083 18.413l-3.557-4.981a5.149 5.149 0 002.82-4.592 5.156 5.156 0 00-5.154-5.154h-6.628v14.727h2.946v-4.418h2.736l3.155 4.418h3.682zM26.51 6.631h3.682c1.219 0 2.21.99 2.21 2.21a2.21 2.21 0 01-2.21 2.208H26.51V6.631zM257 18.413l-3.557-4.981a5.149 5.149 0 002.821-4.592 5.156 5.156 0 00-5.155-5.154h-6.628v14.727h2.946v-4.418h2.736l3.155 4.418H257zm-9.573-11.782h3.682a2.21 2.21 0 012.209 2.21 2.21 2.21 0 01-2.209 2.208h-3.682V6.631zM101.622 3.686H89.84V6.63h4.418v11.782h2.946V6.631h4.418V3.686zM117.822 3.686a7.362 7.362 0 00-7.364 7.363 7.362 7.362 0 007.364 7.364 7.362 7.362 0 007.364-7.364 7.362 7.362 0 00-7.364-7.363zm0 11.782a4.417 4.417 0 01-4.418-4.419 4.417 4.417 0 014.418-4.418 4.417 4.417 0 014.419 4.418 4.417 4.417 0 01-4.419 4.419z" fill="#ffffff">
	</path>
	<path d="M162.006 0a7.362 7.362 0 00-7.364 7.364 7.362 7.362 0 007.364 7.364 7.362 7.362 0 007.364-7.364A7.362 7.362 0 00162.006 0zm0 11.782a4.418 4.418 0 110-8.836 4.417 4.417 0 014.418 4.418 4.417 4.417 0 01-4.418 4.418z" fill="#00B2C8">
	</path>
	<path d="M225.335 15.468v-2.946h7.364V9.577h-7.364V6.63h8.1V3.686H222.39v14.727h11.414v-2.945h-8.469zM142.86 3.686v5.89h-5.891v-5.89h-2.946v14.727h2.946v-5.89h5.891v5.89h2.945V3.686h-2.945z" fill="#ffffff">
	</path>

</svg>
